<svg xmlns="http://www.w3.org/2000/svg" viewBox="0 0 200 200" fill="none" shape-rendering="auto"><metadata xmlns:rdf="http://www.w3.org/1999/02/22-rdf-syntax-ns#" xmlns:xsi="http://www.w3.org/2001/XMLSchema-instance" xmlns:dc="http://purl.org/dc/elements/1.1/" xmlns:dcterms="http://purl.org/dc/terms/"><rdf:RDF><rdf:Description><dc:title>Fun Emoji Set</dc:title><dc:creator>Davis Uche</dc:creator><dc:source xsi:type="dcterms:URI">https://www.figma.com/community/file/968125295144990435</dc:source><dcterms:license xsi:type="dcterms:URI">https://creativecommons.org/licenses/by/4.0/</dcterms:license><dc:rights>Remix of „Fun Emoji Set” (https://www.figma.com/community/file/968125295144990435) by „Davis Uche”, licensed under „CC BY 4.0” (https://creativecommons.org/licenses/by/4.0/)</dc:rights></rdf:Description></rdf:RDF></metadata><mask id="viewboxMask"><rect width="200" height="200" rx="0" ry="0" x="0" y="0" fill="#fff" /></mask><g mask="url(#viewboxMask)"><rect fill="#f6d594" width="200" height="200" x="0" y="0" /><g transform="matrix(1.5625 0 0 1.5625 37.5 110.94)"><path fill-rule="evenodd" clip-rule="evenodd" d="M20 28c8-13 29-13 37 0-13-6-24-6-37 0Z" fill="#1E120B"/><path d="M19.37 29a.37.37 0 0 1-.16-.04.4.4 0 0 1-.13-.1.44.44 0 0 1 0-.5C22.76 21.9 30.28 18 38.7 18h.15c8.29 0 15.45 3.9 19.07 10.32a.48.48 0 0 1 0 .52.4.4 0 0 1-.22.13.39.39 0 0 1-.25-.03c-13.42-7.1-24.4-7.1-37.92 0l-.16.06Zm19.17-6.29a39.78 39.78 0 0 1 17.96 4.72c-3.73-5.4-10.27-8.61-17.61-8.64h-.12c-7.56 0-14.37 3.26-18.17 8.64a40.03 40.03 0 0 1 17.94-4.72Z" fill="#000"/><path d="M104.7-9.65 57.64 28.27a32.88 32.88 0 0 0-5.27-2.3 36.9 36.9 0 0 0-5.28-1.56c-1.23-.26-2.48-.5-3.75-.66l53.53-43.12a3.13 3.13 0 0 1 4.4.48l3.92 4.83c.3.37.52.82.61 1.3a3.12 3.12 0 0 1-1.1 3.11Z" fill="#E2E0E0" stroke="#777" stroke-width=".39" stroke-miterlimit="10"/><path opacity=".66" d="M105.8-12.76c-.2.43-.5.8-.88 1.1L56.25 27.56l-.3-.13a32.88 32.88 0 0 0-3.58-1.47 37.79 37.79 0 0 0-5.28-1.55c-1.23-.26-2.48-.5-3.75-.66l53.53-43.12a3.13 3.13 0 0 1 4.4.48l3.92 4.83c.3.37.52.82.61 1.3Z" fill="#fff"/><path d="M96.55-11.11a1.46 1.46 0 0 0-2.08-.22L49.4 24.97c1.14.32 2.25.69 3.37 1.1L96.4-9.03a1.47 1.47 0 0 0 .14-2.08Z" fill="#CECCCC"/><path d="M83.9-.92a1.46 1.46 0 0 0-2.13-.24L49.4 24.97c1.14.32 2.25.69 3.37 1.1l30.9-24.94a1.47 1.47 0 0 0 .24-2.05Z" fill="#EF5656"/><path d="M75.58 3.45a.36.36 0 0 1-.28-.13l-.73-.91a.35.35 0 0 1 0-.49.37.37 0 0 1 .5 0l.73.9a.37.37 0 0 1 0 .5.3.3 0 0 1-.22.14ZM63.17 13.45a.37.37 0 0 1-.28-.13l-.73-.9a.37.37 0 0 1 .32-.55c.09 0 .17.03.24.09l.73.9a.35.35 0 0 1 0 .5.32.32 0 0 1-.28.1ZM51.04 23.28a.34.34 0 0 1-.28-.13l-.73-.91a.35.35 0 0 1 0-.5.37.37 0 0 1 .5 0l.71.9a.35.35 0 0 1 0 .5.34.34 0 0 1-.2.14ZM69.5 8.35a.3.3 0 0 1-.27-.13L67.77 6.4a.36.36 0 0 1 .55-.44l1.47 1.82a.35.35 0 0 1 0 .5.44.44 0 0 1-.3.07ZM56.9 18.54a.37.37 0 0 1-.29-.13l-1.46-1.82a.37.37 0 0 1 0-.5.35.35 0 0 1 .5 0l1.46 1.82a.37.37 0 0 1 0 .5.44.44 0 0 1-.22.13Z" fill="#000"/></g><g transform="matrix(1.5625 0 0 1.5625 31.25 59.38)"><path d="M77.41 26.02h-6.59c-9.7 0-9.7.07-9.7-9.7v-4.09A12.2 12.2 0 0 1 73.32.03h1.6a12.2 12.2 0 0 1 12.2 12.2v4.16c-.03 9.7-.03 9.63-9.7 9.63Z" fill="#000"/><path d="M69.87 9.56a2.29 2.29 0 1 0 0-4.58 2.29 2.29 0 0 0 0 4.58Z" fill="#fff"/><path opacity=".1" d="M74.11 18.37a5.32 5.32 0 1 0 0-10.65 5.32 5.32 0 0 0 0 10.65Z" fill="#fff"/><path d="M1.82 19.02c-.17 0-.34-.03-.5-.09a1.68 1.68 0 0 1-1-.84 1.75 1.75 0 0 1-.13-1.32 13.54 13.54 0 0 1 4.86-7.1 13.1 13.1 0 0 1 8.07-2.65c2.9-.02 5.73.91 8.06 2.67a13.63 13.63 0 0 1 4.86 7.08c.13.44.09.91-.12 1.32a1.72 1.72 0 0 1-2.3.73 1.69 1.69 0 0 1-.84-1.03c-.62-2.13-1.9-4-3.66-5.32a9.92 9.92 0 0 0-6.06-2c-2.17-.01-4.28.7-6.02 2.02a10.26 10.26 0 0 0-3.64 5.3c-.1.35-.32.65-.6.87a1.7 1.7 0 0 1-.98.36Z" fill="#000"/></g></g></svg>